# Blender 4.4.1
# www.blender.org
mtllib pared4.mtl
o ParedConHuecos
v 0.000000 0.000000 0.000000
v -0.200000 -0.000000 0.000000
v -0.200000 -3.000000 -0.000007
v 0.000000 -3.000000 -0.000007
v 0.000000 -0.000004 2.000000
v -0.200000 -0.000004 2.000000
v -0.200000 -3.000004 1.999993
v 0.000000 -3.000004 1.999993
v 0.000000 -0.000004 2.000000
v -0.200000 -0.000004 2.000000
v -0.200000 -0.750004 1.999998
v 0.000000 -0.750004 1.999998
v 0.000000 -0.000011 5.000000
v -0.200000 -0.000011 5.000000
v -0.200000 -0.750011 4.999999
v 0.000000 -0.750011 4.999999
v 0.000000 -2.250004 1.999995
v -0.200000 -2.250004 1.999995
v -0.200000 -3.000004 1.999993
v 0.000000 -3.000004 1.999993
v 0.000000 -2.250011 4.999995
v -0.200000 -2.250011 4.999995
v -0.200000 -3.000011 4.999993
v 0.000000 -3.000011 4.999993
v 0.000000 -0.000011 5.000000
v -0.200000 -0.000011 5.000000
v -0.200000 -3.000011 4.999993
v 0.000000 -3.000011 4.999993
v 0.000000 -0.000015 7.000000
v -0.2 -0.000015 7.000000
v -0.2 -3.000015 6.999993
v 0.000000 -3.000015 6.999993
v 0.000000 -0.000015 7.000000
v -0.2 -0.000015 7.000000
v -0.2 -1.000015 6.999998
v 0.000000 -1.000015 6.999998
v 0.000000 -0.000018 8.000000
v -0.2 -0.000018 8.000000
v -0.2 -1.000018 7.999998
v 0.00000 -1.000018 7.999998
v 0.00000 -0.000018 8.000000
v -0.2 -0.000018 8.000000
v -0.2 -3.000017 7.999993
v 0.00000 -3.000017 7.999993
v 0.00000 -0.000022 12.000000
v -0.2 -0.000022 12.000000
v -0.2 -3.000022 12
v 0.00000 -3.000022 12
vn -0.0000 1.0000 -0.0000
vn -0.0000 -0.0000 1.0000
vn -0.0000 -1.0000 -0.0000
vn -0.0000 -0.0000 -1.0000
vn 1.0000 -0.0000 -0.0000
vn -1.0000 -0.0000 -0.0000
s 0
f 1//1 2//1 6//1 5//1
f 5//2 6//2 7//2 8//2
f 8//3 7//3 3//3 4//3
f 4//4 3//4 2//4 1//4
f 9//1 10//1 14//1 13//1
f 13//2 14//2 15//2 16//2
f 16//3 15//3 11//3 12//3
f 12//4 11//4 10//4 9//4
f 17//1 18//1 22//1 21//1
f 21//2 22//2 23//2 24//2
f 24//3 23//3 19//3 20//3
f 20//4 19//4 18//4 17//4
f 25//1 26//1 30//1 29//1
f 29//2 30//2 31//2 32//2
f 32//3 31//3 27//3 28//3
f 28//4 27//4 26//4 25//4
f 33//1 34//1 38//1 37//1
f 37//2 38//2 39//2 40//2
f 40//3 39//3 35//3 36//3
f 36//4 35//4 34//4 33//4
f 41//1 42//1 46//1 45//1
f 45//2 46//2 47//2 48//2
f 48//3 47//3 43//3 44//3
f 44//4 43//4 42//4 41//4
f 5//5 8//5 4//5 1//5
f 6//6 2//6 3//6 7//6
f 13//5 16//5 12//5 9//5
f 14//6 10//6 11//6 15//6
f 21//5 24//5 20//5 17//5
f 22//6 18//6 19//6 23//6
f 29//5 32//5 28//5 25//5
f 30//6 26//6 27//6 31//6
f 37//5 40//5 36//5 33//5
f 38//6 34//6 35//6 39//6
f 45//5 48//5 44//5 41//5
f 46//6 42//6 43//6 47//6
